<svg width="20" height="20" viewBox="0 0 20 20" fill="none" xmlns="http://www.w3.org/2000/svg">
<path d="M14.4432 6.5C16.404 6.5 18 8.09519 18 10.0558V13.953C18 15.9088 16.408 17.5 14.4512 17.5H5.5584C3.5968 17.5 2 15.9056 2 13.945V10.0478C2 8.09199 3.5928 6.5 5.5504 6.5L6.3024 6.5L14.4432 6.5Z" fill="white"/>
<path opacity="0.25" d="M14.4432 6.5C16.404 6.5 18 8.09519 18 10.0558V13.953C18 15.9088 16.408 17.5 14.4512 17.5H5.5584C3.5968 17.5 2 15.9056 2 13.945V10.0478C2 8.09199 3.5928 6.5 5.5504 6.5L6.3024 6.5L14.4432 6.5Z" fill="#1A1926"/>
<path d="M10.4364 13.3299L12.7636 10.9556C13.0036 10.7102 13.0036 10.3153 12.762 10.0707C12.5204 9.82693 12.1308 9.82774 11.8908 10.0723L10.6164 11.3724L10.6164 3.12568C10.6164 2.78034 10.3404 2.5 9.99956 2.5C9.65956 2.5 9.38436 2.78034 9.38436 3.12568L9.38436 11.3724L8.10916 10.0723C7.86916 9.82774 7.47956 9.82693 7.23796 10.0707C7.11716 10.1934 7.05636 10.3535 7.05636 10.5144C7.05636 10.6736 7.11716 10.8337 7.23636 10.9556L9.56356 13.3299C9.67956 13.4477 9.83636 13.5144 9.99956 13.5144C10.1636 13.5144 10.3204 13.4477 10.4364 13.3299Z" fill="#1A1926"/>
</svg>
