<svg width="24" height="24" viewBox="0 0 24 24" fill="none" xmlns="http://www.w3.org/2000/svg">
<path fill-rule="evenodd" clip-rule="evenodd" d="M7.59961 11.9998C7.59961 11.8893 7.68915 11.7998 7.79961 11.7998C7.91007 11.7998 7.99961 11.8893 7.99961 11.9998C7.99961 12.1103 7.91007 12.1998 7.79961 12.1998C7.68915 12.1998 7.59961 12.1103 7.59961 11.9998ZM7.79961 9.7998C6.58458 9.7998 5.59961 10.7848 5.59961 11.9998C5.59961 13.2148 6.58458 14.1998 7.79961 14.1998C9.01464 14.1998 9.99961 13.2148 9.99961 11.9998C9.99961 10.7848 9.01464 9.7998 7.79961 9.7998ZM15.9996 11.9998C15.9996 11.8893 16.0892 11.7998 16.1996 11.7998C16.3101 11.7998 16.3996 11.8893 16.3996 11.9998C16.3996 12.1103 16.3101 12.1998 16.1996 12.1998C16.0892 12.1998 15.9996 12.1103 15.9996 11.9998ZM16.1996 9.7998C14.9846 9.7998 13.9996 10.7848 13.9996 11.9998C13.9996 13.2148 14.9846 14.1998 16.1996 14.1998C17.4146 14.1998 18.3996 13.2148 18.3996 11.9998C18.3996 10.7848 17.4146 9.7998 16.1996 9.7998Z" fill="#637085"/>
</svg>
