<svg width="22" height="22" viewBox="0 0 22 22" fill="none" xmlns="http://www.w3.org/2000/svg">
<path fill-rule="evenodd" clip-rule="evenodd" d="M16.9018 8.18169C16.9018 9.28688 17.1939 9.93741 17.8367 10.6881C18.3239 11.2411 18.4795 11.9519 18.4795 12.7212C18.4795 13.4914 18.2259 14.2208 17.7195 14.8137C17.0574 15.5245 16.1225 15.9783 15.1683 16.0572C13.7847 16.175 12.4019 16.2743 11 16.2743C9.59711 16.2743 8.21437 16.2149 6.83163 16.0572C5.87657 15.9783 4.94163 15.5245 4.27956 14.8137C3.77229 14.2208 3.51953 13.4914 3.51953 12.7212C3.51953 11.9519 3.67521 11.2411 4.16236 10.6881C4.82443 9.93741 5.09731 9.28688 5.09731 8.18169V7.80591C5.09731 6.32582 5.46726 5.35801 6.22729 4.41146C7.35727 3.02887 9.16856 2.2002 10.9606 2.2002H11.0385C12.869 2.2002 14.7389 3.06875 15.8496 4.50984C16.5703 5.43777 16.9018 6.36571 16.9018 7.80591V8.18169ZM9.20671 17.3612C9.64663 17.2672 12.3273 17.2672 12.7672 17.3612C13.1433 17.448 13.55 17.6501 13.55 18.0932C13.5281 18.516 13.2806 18.8891 12.9377 19.1257L12.9386 19.1266C12.4952 19.4723 11.9748 19.6921 11.4308 19.7709C11.13 19.8091 10.8343 19.8108 10.544 19.7709C9.99909 19.6921 9.47871 19.4723 9.03529 19.1266L9.03616 19.1257C8.69332 18.8891 8.44581 18.516 8.42394 18.0932C8.42394 17.6501 8.83063 17.448 9.20671 17.3612Z" fill="white"/>
<path d="M17.8367 10.6881C17.1939 9.93741 16.9018 9.28688 16.9018 8.18169V7.80591C16.9018 6.36571 16.5703 5.43777 15.8496 4.50984C14.7389 3.06875 12.869 2.2002 11.0385 2.2002H10.9606C9.16856 2.2002 7.35727 3.02887 6.22729 4.41146C5.46726 5.35801 5.09731 6.32582 5.09731 7.80591V8.18169C5.09731 9.28688 4.82443 9.93741 4.16236 10.6881C3.67521 11.2411 3.51953 11.9519 3.51953 12.7212C3.51953 13.4914 3.77229 14.2208 4.27956 14.8137C4.94163 15.5245 5.87657 15.9783 6.83163 16.0572C8.21437 16.2149 9.59711 16.2743 11 16.2743C12.4019 16.2743 13.7847 16.175 15.1683 16.0572C16.1225 15.9783 17.0574 15.5245 17.7195 14.8137C18.2259 14.2208 18.4795 13.4914 18.4795 12.7212C18.4795 11.9519 18.3239 11.2411 17.8367 10.6881Z" fill="#1A1926"/>
<path opacity="0.4" d="M12.7671 17.3605C12.3272 17.2666 9.64652 17.2666 9.20659 17.3605C8.83052 17.4474 8.42383 17.6494 8.42383 18.0926C8.44569 18.5153 8.6932 18.8884 9.03605 19.1251L9.03517 19.126C9.47859 19.4716 9.99898 19.6914 10.5439 19.7703C10.8342 19.8102 11.1298 19.8084 11.4307 19.7703C11.9747 19.6914 12.4951 19.4716 12.9385 19.126L12.9376 19.1251C13.2805 18.8884 13.528 18.5153 13.5498 18.0926C13.5498 17.6494 13.1432 17.4474 12.7671 17.3605Z" fill="#1A1926"/>
</svg>
