<svg width="20" height="20" viewBox="0 0 20 20" fill="none" xmlns="http://www.w3.org/2000/svg">
<path d="M13.4513 2.7998C13.4135 2.99421 13.3946 3.19182 13.395 3.38985C13.395 5.16665 14.8375 6.60702 16.6169 6.60702C16.8128 6.60606 17.0083 6.58725 17.2008 6.55083V12.929C17.2008 15.6123 15.618 17.1998 12.9307 17.1998H7.07787C4.38359 17.1998 2.80078 15.6123 2.80078 12.929V7.08468C2.80078 4.40137 4.38359 2.7998 7.07787 2.7998H13.4513ZM13.548 7.59521L13.4541 7.60107C13.2977 7.62358 13.1571 7.70845 13.0644 7.83629L11.1369 10.3159L8.94206 8.5879C8.81675 8.49028 8.65735 8.44718 8.49983 8.46832C8.34231 8.48947 8.19997 8.57309 8.10493 8.70029L5.74128 11.7489C5.6582 11.8524 5.61347 11.9815 5.61466 12.1141L5.61673 12.2024C5.63964 12.4344 5.79877 12.6349 6.02668 12.7068C6.28309 12.7878 6.56188 12.6857 6.70503 12.4583L8.68178 9.90146L10.8766 11.6224C11.0014 11.7231 11.1619 11.7687 11.3211 11.7488C11.4803 11.729 11.6246 11.6453 11.7208 11.5171L14.007 8.56683V8.55278C14.2028 8.28978 14.1528 7.91892 13.8945 7.71688C13.7694 7.62035 13.6105 7.57857 13.4541 7.60107L13.548 7.59521Z" fill="#1A1926"/>
<path d="M16.8008 5.20019C17.9054 5.20019 18.8008 4.30476 18.8008 3.20019C18.8008 2.09563 17.9054 1.2002 16.8008 1.2002C15.6962 1.2002 14.8008 2.09563 14.8008 3.20019C14.8008 4.30476 15.6962 5.20019 16.8008 5.20019Z" fill="white"/>
</svg>
