<svg width="16" height="16" viewBox="0 0 16 16" fill="none" xmlns="http://www.w3.org/2000/svg">
<path d="M14.3996 7.99961C14.3996 11.535 11.5343 14.3996 7.99961 14.3996C4.46489 14.3996 1.59961 11.535 1.59961 7.99961C1.59961 4.46553 4.46489 1.59961 7.99961 1.59961C11.5343 1.59961 14.3996 4.46553 14.3996 7.99961Z" fill="white"/>
<path opacity="0.25" d="M14.3996 7.99961C14.3996 11.535 11.5343 14.3996 7.99961 14.3996C4.46489 14.3996 1.59961 11.535 1.59961 7.99961C1.59961 4.46553 4.46489 1.59961 7.99961 1.59961C11.5343 1.59961 14.3996 4.46553 14.3996 7.99961Z" fill="#1A1926"/>
<path d="M10.2869 10.4409C10.2031 10.4409 10.1186 10.4192 10.0412 10.3737L7.52852 8.87483C7.38388 8.78779 7.29492 8.63099 7.29492 8.46203V5.23195C7.29492 4.96699 7.50996 4.75195 7.77492 4.75195C8.03988 4.75195 8.25492 4.96699 8.25492 5.23195V8.18939L10.5333 9.54811C10.7605 9.68443 10.8354 9.97883 10.6997 10.2067C10.6095 10.3571 10.4501 10.4409 10.2869 10.4409Z" fill="#1A1926"/>
</svg>
